M48
INCH,TZ
T1C0.0295
T2C0.0315
T3C0.0354
T4C0.0394
T5C0.0512
T6C0.0598
%
G90
G05
T1
X40600Y-31600
X41100Y-31600
X41600Y-31600
T2
X42600Y-33816
X42600Y-34800
X31000Y-27700
X35000Y-27700
X37000Y-32831
X37000Y-34800
X39400Y-33816
X39400Y-34800
X37000Y-27400
X37000Y-31400
X31000Y-29500
X35000Y-29500
X31000Y-33800
X35000Y-33800
X39000Y-27400
X39000Y-31400
T3
X43600Y-27600
X43600Y-31600
X41400Y-27400
X41400Y-28400
T4
X31600Y-31200
X31600Y-32200
X32600Y-31200
X32600Y-32200
X33600Y-31200
X33600Y-32200
X34600Y-31200
X34600Y-32200
T5
X47276Y-29397
X47276Y-34200
X49638Y-28609
X52000Y-29397
X52000Y-34200
T6
X48800Y-37800
X50800Y-37800
X40600Y-37800
X42600Y-37800
T0
M30
