G04 #@! TF.GenerationSoftware,KiCad,Pcbnew,(5.1.6)-1*
G04 #@! TF.CreationDate,2020-10-10T20:49:59+03:00*
G04 #@! TF.ProjectId,eso,65736f2e-6b69-4636-9164-5f7063625858,rev?*
G04 #@! TF.SameCoordinates,Original*
G04 #@! TF.FileFunction,Copper,L1,Top*
G04 #@! TF.FilePolarity,Positive*
%FSLAX46Y46*%
G04 Gerber Fmt 4.6, Leading zero omitted, Abs format (unit mm)*
G04 Created by KiCad (PCBNEW (5.1.6)-1) date 2020-10-10 20:49:59*
%MOMM*%
%LPD*%
G01*
G04 APERTURE LIST*
G04 #@! TA.AperFunction,ComponentPad*
%ADD10C,1.800000*%
G04 #@! TD*
G04 #@! TA.AperFunction,ComponentPad*
%ADD11R,1.800000X1.800000*%
G04 #@! TD*
G04 #@! TA.AperFunction,ComponentPad*
%ADD12C,1.600000*%
G04 #@! TD*
G04 #@! TA.AperFunction,ComponentPad*
%ADD13R,1.700000X1.700000*%
G04 #@! TD*
G04 #@! TA.AperFunction,ComponentPad*
%ADD14O,1.700000X1.700000*%
G04 #@! TD*
G04 #@! TA.AperFunction,SMDPad,CuDef*
%ADD15R,2.000000X1.500000*%
G04 #@! TD*
G04 #@! TA.AperFunction,SMDPad,CuDef*
%ADD16R,2.000000X3.800000*%
G04 #@! TD*
G04 #@! TA.AperFunction,ComponentPad*
%ADD17O,1.600000X1.600000*%
G04 #@! TD*
G04 #@! TA.AperFunction,ComponentPad*
%ADD18R,1.050000X1.500000*%
G04 #@! TD*
G04 #@! TA.AperFunction,ComponentPad*
%ADD19O,1.050000X1.500000*%
G04 #@! TD*
G04 #@! TA.AperFunction,ComponentPad*
%ADD20C,3.000000*%
G04 #@! TD*
G04 #@! TA.AperFunction,ComponentPad*
%ADD21R,3.000000X3.000000*%
G04 #@! TD*
G04 #@! TA.AperFunction,ComponentPad*
%ADD22O,1.800000X1.800000*%
G04 #@! TD*
G04 #@! TA.AperFunction,ComponentPad*
%ADD23R,1.600000X1.600000*%
G04 #@! TD*
G04 #@! TA.AperFunction,Conductor*
%ADD24C,1.000000*%
G04 #@! TD*
G04 #@! TA.AperFunction,Conductor*
%ADD25C,0.800000*%
G04 #@! TD*
G04 APERTURE END LIST*
D10*
X105156000Y-69596000D03*
D11*
X105156000Y-72136000D03*
D12*
X93980000Y-83392000D03*
X93980000Y-88392000D03*
D13*
X80264000Y-79248000D03*
D14*
X80264000Y-81788000D03*
X82804000Y-79248000D03*
X82804000Y-81788000D03*
X85344000Y-79248000D03*
X85344000Y-81788000D03*
X87884000Y-79248000D03*
X87884000Y-81788000D03*
D15*
X87478000Y-95391000D03*
X87478000Y-90791000D03*
X87478000Y-93091000D03*
D16*
X81178000Y-93091000D03*
D12*
X88900000Y-85852000D03*
D17*
X78740000Y-85852000D03*
X93980000Y-79756000D03*
D12*
X93980000Y-69596000D03*
X99060000Y-69596000D03*
D17*
X99060000Y-79756000D03*
D12*
X78740000Y-74930000D03*
D17*
X88900000Y-74930000D03*
D12*
X78740000Y-70358000D03*
D17*
X88900000Y-70358000D03*
D18*
X105664000Y-80264000D03*
D19*
X103124000Y-80264000D03*
X104394000Y-80264000D03*
D20*
X120080000Y-74668000D03*
X120080000Y-86868000D03*
X132080000Y-86868000D03*
X132080000Y-74668000D03*
X126080000Y-72668000D03*
X129032000Y-96012000D03*
D21*
X123952000Y-96012000D03*
D20*
X108204000Y-96012000D03*
D21*
X103124000Y-96012000D03*
D22*
X110744000Y-70104000D03*
D11*
X110744000Y-80264000D03*
D23*
X108204000Y-88392000D03*
D12*
X108204000Y-85892000D03*
X100076000Y-85892000D03*
D23*
X100076000Y-88392000D03*
D24*
X103124000Y-94488000D02*
X103124000Y-96012000D01*
D25*
X103124000Y-74168000D02*
X103124000Y-80264000D01*
X105156000Y-72136000D02*
X103124000Y-74168000D01*
X101600000Y-92964000D02*
X103124000Y-94488000D01*
X91376500Y-92964000D02*
X101600000Y-92964000D01*
X87478000Y-95391000D02*
X87873000Y-94996000D01*
X89344500Y-94996000D02*
X91376500Y-92964000D01*
X87873000Y-94996000D02*
X89344500Y-94996000D01*
X87478000Y-93091000D02*
X84709000Y-93091000D01*
X84709000Y-93091000D02*
X81178000Y-93091000D01*
X81280000Y-88392000D02*
X84328000Y-88392000D01*
X84328000Y-88392000D02*
X93980000Y-88392000D01*
D24*
X79756000Y-85852000D02*
X81178000Y-87274000D01*
X78740000Y-85852000D02*
X79756000Y-85852000D01*
X81178000Y-87274000D02*
X81178000Y-93091000D01*
X108204000Y-93472000D02*
X108204000Y-96012000D01*
X87478000Y-90791000D02*
X105523000Y-90791000D01*
X105523000Y-90791000D02*
X108204000Y-93472000D01*
D25*
X97536000Y-79756000D02*
X99060000Y-79756000D01*
X97536000Y-79756000D02*
X93980000Y-79756000D01*
X98552000Y-79756000D02*
X97536000Y-79756000D01*
X92964000Y-79756000D02*
X93980000Y-79756000D01*
X90932000Y-81788000D02*
X92964000Y-79756000D01*
X90932000Y-84328000D02*
X90932000Y-81788000D01*
X88900000Y-85852000D02*
X89408000Y-85852000D01*
X89408000Y-85852000D02*
X90932000Y-84328000D01*
M02*
