G04 #@! TF.GenerationSoftware,KiCad,Pcbnew,(5.1.6)-1*
G04 #@! TF.CreationDate,2020-10-10T20:49:59+03:00*
G04 #@! TF.ProjectId,eso,65736f2e-6b69-4636-9164-5f7063625858,rev?*
G04 #@! TF.SameCoordinates,Original*
G04 #@! TF.FileFunction,Copper,L2,Bot*
G04 #@! TF.FilePolarity,Positive*
%FSLAX46Y46*%
G04 Gerber Fmt 4.6, Leading zero omitted, Abs format (unit mm)*
G04 Created by KiCad (PCBNEW (5.1.6)-1) date 2020-10-10 20:49:59*
%MOMM*%
%LPD*%
G01*
G04 APERTURE LIST*
G04 #@! TA.AperFunction,ComponentPad*
%ADD10C,1.800000*%
G04 #@! TD*
G04 #@! TA.AperFunction,ComponentPad*
%ADD11R,1.800000X1.800000*%
G04 #@! TD*
G04 #@! TA.AperFunction,ComponentPad*
%ADD12C,1.600000*%
G04 #@! TD*
G04 #@! TA.AperFunction,ComponentPad*
%ADD13R,1.700000X1.700000*%
G04 #@! TD*
G04 #@! TA.AperFunction,ComponentPad*
%ADD14O,1.700000X1.700000*%
G04 #@! TD*
G04 #@! TA.AperFunction,ComponentPad*
%ADD15O,1.600000X1.600000*%
G04 #@! TD*
G04 #@! TA.AperFunction,ComponentPad*
%ADD16R,1.050000X1.500000*%
G04 #@! TD*
G04 #@! TA.AperFunction,ComponentPad*
%ADD17O,1.050000X1.500000*%
G04 #@! TD*
G04 #@! TA.AperFunction,ComponentPad*
%ADD18C,3.000000*%
G04 #@! TD*
G04 #@! TA.AperFunction,ComponentPad*
%ADD19R,3.000000X3.000000*%
G04 #@! TD*
G04 #@! TA.AperFunction,ComponentPad*
%ADD20O,1.800000X1.800000*%
G04 #@! TD*
G04 #@! TA.AperFunction,ComponentPad*
%ADD21R,1.600000X1.600000*%
G04 #@! TD*
G04 #@! TA.AperFunction,Conductor*
%ADD22C,1.000000*%
G04 #@! TD*
G04 #@! TA.AperFunction,Conductor*
%ADD23C,0.800000*%
G04 #@! TD*
G04 #@! TA.AperFunction,Conductor*
%ADD24C,1.500000*%
G04 #@! TD*
G04 APERTURE END LIST*
D10*
X105156000Y-69596000D03*
D11*
X105156000Y-72136000D03*
D12*
X93980000Y-83392000D03*
X93980000Y-88392000D03*
D13*
X80264000Y-79248000D03*
D14*
X80264000Y-81788000D03*
X82804000Y-79248000D03*
X82804000Y-81788000D03*
X85344000Y-79248000D03*
X85344000Y-81788000D03*
X87884000Y-79248000D03*
X87884000Y-81788000D03*
D12*
X88900000Y-85852000D03*
D15*
X78740000Y-85852000D03*
X93980000Y-79756000D03*
D12*
X93980000Y-69596000D03*
X99060000Y-69596000D03*
D15*
X99060000Y-79756000D03*
D12*
X78740000Y-74930000D03*
D15*
X88900000Y-74930000D03*
D12*
X78740000Y-70358000D03*
D15*
X88900000Y-70358000D03*
D16*
X105664000Y-80264000D03*
D17*
X103124000Y-80264000D03*
X104394000Y-80264000D03*
D18*
X120080000Y-74668000D03*
X120080000Y-86868000D03*
X132080000Y-86868000D03*
X132080000Y-74668000D03*
X126080000Y-72668000D03*
X129032000Y-96012000D03*
D19*
X123952000Y-96012000D03*
D18*
X108204000Y-96012000D03*
D19*
X103124000Y-96012000D03*
D20*
X110744000Y-70104000D03*
D11*
X110744000Y-80264000D03*
D21*
X108204000Y-88392000D03*
D12*
X108204000Y-85892000D03*
X100076000Y-85892000D03*
D21*
X100076000Y-88392000D03*
D22*
X92456000Y-81788000D02*
X87884000Y-81788000D01*
D23*
X93980000Y-83392000D02*
X93980000Y-83312000D01*
D22*
X93980000Y-83312000D02*
X92456000Y-81788000D01*
X96480000Y-85892000D02*
X93980000Y-83392000D01*
X100076000Y-85892000D02*
X96480000Y-85892000D01*
X100076000Y-85892000D02*
X103672000Y-85892000D01*
X103124000Y-80264000D02*
X103124000Y-85852000D01*
D23*
X103124000Y-85852000D02*
X103164000Y-85892000D01*
D24*
X103124000Y-96012000D02*
X103124000Y-85852000D01*
D22*
X103672000Y-85892000D02*
X108204000Y-85892000D01*
D23*
X100076000Y-88392000D02*
X93980000Y-88392000D01*
D22*
X76454000Y-74930000D02*
X76200000Y-75184000D01*
X78740000Y-74930000D02*
X76454000Y-74930000D01*
X76708000Y-79248000D02*
X76200000Y-78740000D01*
X80264000Y-79248000D02*
X76708000Y-79248000D01*
X76200000Y-78740000D02*
X76200000Y-75184000D01*
X76200000Y-84328000D02*
X76200000Y-78740000D01*
X78740000Y-85852000D02*
X77724000Y-85852000D01*
X77724000Y-85852000D02*
X76200000Y-84328000D01*
X77470000Y-70358000D02*
X78740000Y-70358000D01*
X76200000Y-75184000D02*
X76200000Y-71628000D01*
X76200000Y-71628000D02*
X77470000Y-70358000D01*
X112784000Y-74668000D02*
X120080000Y-74668000D01*
X110744000Y-80264000D02*
X110744000Y-76708000D01*
X110744000Y-76708000D02*
X112784000Y-74668000D01*
X108204000Y-88392000D02*
X108204000Y-96012000D01*
D23*
X109220000Y-88392000D02*
X108204000Y-88392000D01*
D22*
X109728000Y-88392000D02*
X109220000Y-88392000D01*
X110744000Y-80264000D02*
X110744000Y-87376000D01*
X110744000Y-87376000D02*
X109728000Y-88392000D01*
D23*
X99060000Y-69596000D02*
X105156000Y-69596000D01*
X85344000Y-84328000D02*
X85344000Y-81788000D01*
X88900000Y-85852000D02*
X86868000Y-85852000D01*
X86868000Y-85852000D02*
X85344000Y-84328000D01*
X86741000Y-74930000D02*
X85344000Y-76327000D01*
X85344000Y-76327000D02*
X85344000Y-79248000D01*
X88900000Y-74930000D02*
X86741000Y-74930000D01*
X88900000Y-70358000D02*
X88646000Y-70358000D01*
X82804000Y-76200000D02*
X82804000Y-79248000D01*
X88646000Y-70358000D02*
X82804000Y-76200000D01*
D22*
X129032000Y-90678000D02*
X129032000Y-96012000D01*
X126080000Y-72668000D02*
X126080000Y-87726000D01*
X126080000Y-87726000D02*
X129032000Y-90678000D01*
X123952000Y-92964000D02*
X123952000Y-96012000D01*
X120080000Y-86868000D02*
X120080000Y-89092000D01*
X120080000Y-89092000D02*
X123952000Y-92964000D01*
D23*
X104394000Y-75438000D02*
X104394000Y-80264000D01*
X103124000Y-74168000D02*
X104394000Y-75438000D01*
X93980000Y-69596000D02*
X93980000Y-71628000D01*
X96520000Y-74168000D02*
X103124000Y-74168000D01*
X93980000Y-71628000D02*
X96520000Y-74168000D01*
D22*
X105664000Y-75184000D02*
X110744000Y-70104000D01*
X105664000Y-80264000D02*
X105664000Y-75184000D01*
X132080000Y-69596000D02*
X132080000Y-74668000D01*
X130048000Y-67564000D02*
X132080000Y-69596000D01*
X110744000Y-70104000D02*
X113284000Y-67564000D01*
X113284000Y-67564000D02*
X130048000Y-67564000D01*
M02*
