G04 #@! TF.GenerationSoftware,KiCad,Pcbnew,(5.1.6)-1*
G04 #@! TF.CreationDate,2020-10-10T20:49:59+03:00*
G04 #@! TF.ProjectId,eso,65736f2e-6b69-4636-9164-5f7063625858,rev?*
G04 #@! TF.SameCoordinates,Original*
G04 #@! TF.FileFunction,Legend,Top*
G04 #@! TF.FilePolarity,Positive*
%FSLAX46Y46*%
G04 Gerber Fmt 4.6, Leading zero omitted, Abs format (unit mm)*
G04 Created by KiCad (PCBNEW (5.1.6)-1) date 2020-10-10 20:49:59*
%MOMM*%
%LPD*%
G01*
G04 APERTURE LIST*
%ADD10C,0.300000*%
%ADD11C,0.500000*%
%ADD12C,0.250000*%
%ADD13C,0.120000*%
%ADD14C,0.160000*%
G04 APERTURE END LIST*
D10*
X112166476Y-100190285D02*
X113385523Y-100190285D01*
X112776000Y-100799809D02*
X112776000Y-99580761D01*
D11*
X116332000Y-70104000D02*
X116332000Y-100076000D01*
D12*
X120663428Y-101634857D02*
X120263428Y-101063428D01*
X119977714Y-101634857D02*
X119977714Y-100434857D01*
X120434857Y-100434857D01*
X120549142Y-100492000D01*
X120606285Y-100549142D01*
X120663428Y-100663428D01*
X120663428Y-100834857D01*
X120606285Y-100949142D01*
X120549142Y-101006285D01*
X120434857Y-101063428D01*
X119977714Y-101063428D01*
X121634857Y-101577714D02*
X121520571Y-101634857D01*
X121292000Y-101634857D01*
X121177714Y-101577714D01*
X121120571Y-101463428D01*
X121120571Y-101006285D01*
X121177714Y-100892000D01*
X121292000Y-100834857D01*
X121520571Y-100834857D01*
X121634857Y-100892000D01*
X121692000Y-101006285D01*
X121692000Y-101120571D01*
X121120571Y-101234857D01*
X122377714Y-101634857D02*
X122263428Y-101577714D01*
X122206285Y-101463428D01*
X122206285Y-100434857D01*
X123349142Y-101634857D02*
X123349142Y-101006285D01*
X123292000Y-100892000D01*
X123177714Y-100834857D01*
X122949142Y-100834857D01*
X122834857Y-100892000D01*
X123349142Y-101577714D02*
X123234857Y-101634857D01*
X122949142Y-101634857D01*
X122834857Y-101577714D01*
X122777714Y-101463428D01*
X122777714Y-101349142D01*
X122834857Y-101234857D01*
X122949142Y-101177714D01*
X123234857Y-101177714D01*
X123349142Y-101120571D01*
X123806285Y-100834857D02*
X124092000Y-101634857D01*
X124377714Y-100834857D02*
X124092000Y-101634857D01*
X123977714Y-101920571D01*
X123920571Y-101977714D01*
X123806285Y-102034857D01*
X126434857Y-101520571D02*
X126377714Y-101577714D01*
X126206285Y-101634857D01*
X126092000Y-101634857D01*
X125920571Y-101577714D01*
X125806285Y-101463428D01*
X125749142Y-101349142D01*
X125692000Y-101120571D01*
X125692000Y-100949142D01*
X125749142Y-100720571D01*
X125806285Y-100606285D01*
X125920571Y-100492000D01*
X126092000Y-100434857D01*
X126206285Y-100434857D01*
X126377714Y-100492000D01*
X126434857Y-100549142D01*
X127120571Y-101634857D02*
X127006285Y-101577714D01*
X126949142Y-101520571D01*
X126892000Y-101406285D01*
X126892000Y-101063428D01*
X126949142Y-100949142D01*
X127006285Y-100892000D01*
X127120571Y-100834857D01*
X127292000Y-100834857D01*
X127406285Y-100892000D01*
X127463428Y-100949142D01*
X127520571Y-101063428D01*
X127520571Y-101406285D01*
X127463428Y-101520571D01*
X127406285Y-101577714D01*
X127292000Y-101634857D01*
X127120571Y-101634857D01*
X128034857Y-100834857D02*
X128034857Y-101634857D01*
X128034857Y-100949142D02*
X128092000Y-100892000D01*
X128206285Y-100834857D01*
X128377714Y-100834857D01*
X128492000Y-100892000D01*
X128549142Y-101006285D01*
X128549142Y-101634857D01*
X128949142Y-100834857D02*
X129406285Y-100834857D01*
X129120571Y-100434857D02*
X129120571Y-101463428D01*
X129177714Y-101577714D01*
X129292000Y-101634857D01*
X129406285Y-101634857D01*
X130320571Y-101634857D02*
X130320571Y-101006285D01*
X130263428Y-100892000D01*
X130149142Y-100834857D01*
X129920571Y-100834857D01*
X129806285Y-100892000D01*
X130320571Y-101577714D02*
X130206285Y-101634857D01*
X129920571Y-101634857D01*
X129806285Y-101577714D01*
X129749142Y-101463428D01*
X129749142Y-101349142D01*
X129806285Y-101234857D01*
X129920571Y-101177714D01*
X130206285Y-101177714D01*
X130320571Y-101120571D01*
X131406285Y-101577714D02*
X131292000Y-101634857D01*
X131063428Y-101634857D01*
X130949142Y-101577714D01*
X130892000Y-101520571D01*
X130834857Y-101406285D01*
X130834857Y-101063428D01*
X130892000Y-100949142D01*
X130949142Y-100892000D01*
X131063428Y-100834857D01*
X131292000Y-100834857D01*
X131406285Y-100892000D01*
X131749142Y-100834857D02*
X132206285Y-100834857D01*
X131920571Y-100434857D02*
X131920571Y-101463428D01*
X131977714Y-101577714D01*
X132092000Y-101634857D01*
X132206285Y-101634857D01*
X132549142Y-101577714D02*
X132663428Y-101634857D01*
X132892000Y-101634857D01*
X133006285Y-101577714D01*
X133063428Y-101463428D01*
X133063428Y-101406285D01*
X133006285Y-101292000D01*
X132892000Y-101234857D01*
X132720571Y-101234857D01*
X132606285Y-101177714D01*
X132549142Y-101063428D01*
X132549142Y-101006285D01*
X132606285Y-100892000D01*
X132720571Y-100834857D01*
X132892000Y-100834857D01*
X133006285Y-100892000D01*
X102006857Y-100434857D02*
X101435428Y-100434857D01*
X101378285Y-101006285D01*
X101435428Y-100949142D01*
X101549714Y-100892000D01*
X101835428Y-100892000D01*
X101949714Y-100949142D01*
X102006857Y-101006285D01*
X102064000Y-101120571D01*
X102064000Y-101406285D01*
X102006857Y-101520571D01*
X101949714Y-101577714D01*
X101835428Y-101634857D01*
X101549714Y-101634857D01*
X101435428Y-101577714D01*
X101378285Y-101520571D01*
X102406857Y-100434857D02*
X102806857Y-101634857D01*
X103206857Y-100434857D01*
X104464000Y-101577714D02*
X104635428Y-101634857D01*
X104921142Y-101634857D01*
X105035428Y-101577714D01*
X105092571Y-101520571D01*
X105149714Y-101406285D01*
X105149714Y-101292000D01*
X105092571Y-101177714D01*
X105035428Y-101120571D01*
X104921142Y-101063428D01*
X104692571Y-101006285D01*
X104578285Y-100949142D01*
X104521142Y-100892000D01*
X104464000Y-100777714D01*
X104464000Y-100663428D01*
X104521142Y-100549142D01*
X104578285Y-100492000D01*
X104692571Y-100434857D01*
X104978285Y-100434857D01*
X105149714Y-100492000D01*
X106178285Y-100834857D02*
X106178285Y-101634857D01*
X105664000Y-100834857D02*
X105664000Y-101463428D01*
X105721142Y-101577714D01*
X105835428Y-101634857D01*
X106006857Y-101634857D01*
X106121142Y-101577714D01*
X106178285Y-101520571D01*
X106749714Y-100834857D02*
X106749714Y-102034857D01*
X106749714Y-100892000D02*
X106864000Y-100834857D01*
X107092571Y-100834857D01*
X107206857Y-100892000D01*
X107264000Y-100949142D01*
X107321142Y-101063428D01*
X107321142Y-101406285D01*
X107264000Y-101520571D01*
X107206857Y-101577714D01*
X107092571Y-101634857D01*
X106864000Y-101634857D01*
X106749714Y-101577714D01*
X107835428Y-100834857D02*
X107835428Y-102034857D01*
X107835428Y-100892000D02*
X107949714Y-100834857D01*
X108178285Y-100834857D01*
X108292571Y-100892000D01*
X108349714Y-100949142D01*
X108406857Y-101063428D01*
X108406857Y-101406285D01*
X108349714Y-101520571D01*
X108292571Y-101577714D01*
X108178285Y-101634857D01*
X107949714Y-101634857D01*
X107835428Y-101577714D01*
X109092571Y-101634857D02*
X108978285Y-101577714D01*
X108921142Y-101463428D01*
X108921142Y-100434857D01*
X109435428Y-100834857D02*
X109721142Y-101634857D01*
X110006857Y-100834857D02*
X109721142Y-101634857D01*
X109606857Y-101920571D01*
X109549714Y-101977714D01*
X109435428Y-102034857D01*
D13*
X103920000Y-72426000D02*
X104076000Y-72426000D01*
X106236000Y-72426000D02*
X106392000Y-72426000D01*
X106235837Y-69824870D02*
G75*
G02*
X106236000Y-71906961I-1079837J-1041130D01*
G01*
X104076163Y-69824870D02*
G75*
G03*
X104076000Y-71906961I1079837J-1041130D01*
G01*
X106234608Y-69193665D02*
G75*
G02*
X106391516Y-72426000I-1078608J-1672335D01*
G01*
X104077392Y-69193665D02*
G75*
G03*
X103920484Y-72426000I1078608J-1672335D01*
G01*
X95035000Y-83422000D02*
X95350000Y-83422000D01*
X92610000Y-83422000D02*
X92925000Y-83422000D01*
X95035000Y-88362000D02*
X95350000Y-88362000D01*
X92610000Y-88362000D02*
X92925000Y-88362000D01*
X95350000Y-88362000D02*
X95350000Y-83422000D01*
X92610000Y-88362000D02*
X92610000Y-83422000D01*
X91694000Y-102616000D02*
X76202000Y-102598000D01*
X78234000Y-77452000D02*
X76202000Y-77452000D01*
X76202000Y-77452000D02*
X76202000Y-102598000D01*
X89662000Y-77470000D02*
X91694000Y-77470000D01*
X91694000Y-77470000D02*
X91694000Y-102616000D01*
X78934000Y-83118000D02*
X78934000Y-80518000D01*
X78934000Y-83118000D02*
X89214000Y-83118000D01*
X89214000Y-83118000D02*
X89214000Y-77918000D01*
X81534000Y-77918000D02*
X89214000Y-77918000D01*
X81534000Y-80518000D02*
X81534000Y-77918000D01*
X78934000Y-80518000D02*
X81534000Y-80518000D01*
X78934000Y-77918000D02*
X80264000Y-77918000D01*
X78934000Y-79248000D02*
X78934000Y-77918000D01*
X88428000Y-96501000D02*
X82418000Y-96501000D01*
X86178000Y-89681000D02*
X82418000Y-89681000D01*
X82418000Y-96501000D02*
X82418000Y-95241000D01*
X82418000Y-89681000D02*
X82418000Y-90941000D01*
X87090000Y-87222000D02*
X87090000Y-84482000D01*
X87090000Y-84482000D02*
X80550000Y-84482000D01*
X80550000Y-84482000D02*
X80550000Y-87222000D01*
X80550000Y-87222000D02*
X87090000Y-87222000D01*
X87860000Y-85852000D02*
X87090000Y-85852000D01*
X79780000Y-85852000D02*
X80550000Y-85852000D01*
X93980000Y-78716000D02*
X93980000Y-77946000D01*
X93980000Y-70636000D02*
X93980000Y-71406000D01*
X95350000Y-77946000D02*
X95350000Y-71406000D01*
X92610000Y-77946000D02*
X95350000Y-77946000D01*
X92610000Y-71406000D02*
X92610000Y-77946000D01*
X95350000Y-71406000D02*
X92610000Y-71406000D01*
X100430000Y-71406000D02*
X97690000Y-71406000D01*
X97690000Y-71406000D02*
X97690000Y-77946000D01*
X97690000Y-77946000D02*
X100430000Y-77946000D01*
X100430000Y-77946000D02*
X100430000Y-71406000D01*
X99060000Y-70636000D02*
X99060000Y-71406000D01*
X99060000Y-78716000D02*
X99060000Y-77946000D01*
X80550000Y-73560000D02*
X80550000Y-76300000D01*
X80550000Y-76300000D02*
X87090000Y-76300000D01*
X87090000Y-76300000D02*
X87090000Y-73560000D01*
X87090000Y-73560000D02*
X80550000Y-73560000D01*
X79780000Y-74930000D02*
X80550000Y-74930000D01*
X87860000Y-74930000D02*
X87090000Y-74930000D01*
X80550000Y-68988000D02*
X80550000Y-71728000D01*
X80550000Y-71728000D02*
X87090000Y-71728000D01*
X87090000Y-71728000D02*
X87090000Y-68988000D01*
X87090000Y-68988000D02*
X80550000Y-68988000D01*
X79780000Y-70358000D02*
X80550000Y-70358000D01*
X87860000Y-70358000D02*
X87090000Y-70358000D01*
X106194000Y-78414000D02*
X102594000Y-78414000D01*
X102555522Y-78425522D02*
G75*
G03*
X104394000Y-82864000I1838478J-1838478D01*
G01*
X106232478Y-78425522D02*
G75*
G02*
X104394000Y-82864000I-1838478J-1838478D01*
G01*
X124880000Y-71168000D02*
X118380000Y-71168000D01*
X133780000Y-71168000D02*
X127280000Y-71168000D01*
X133780000Y-71168000D02*
X133780000Y-90368000D01*
X133780000Y-90368000D02*
X118380000Y-90368000D01*
X118380000Y-90368000D02*
X118380000Y-71168000D01*
X121780000Y-86868000D02*
X124080000Y-86868000D01*
X130380000Y-86868000D02*
X128080000Y-86868000D01*
X120080000Y-76368000D02*
X120080000Y-78668000D01*
X126080000Y-75268000D02*
X126080000Y-74368000D01*
X132080000Y-78668000D02*
X132080000Y-76368000D01*
X126080000Y-82168000D02*
X126080000Y-83668000D01*
X126080000Y-83668000D02*
X128780000Y-88168000D01*
X122380000Y-82168000D02*
X122380000Y-75268000D01*
X126080000Y-82168000D02*
X122380000Y-82168000D01*
X126080000Y-75268000D02*
X122380000Y-75268000D01*
X132080000Y-78668000D02*
X127580000Y-78668000D01*
X124580000Y-78668000D02*
X120080000Y-78668000D01*
X124580000Y-81168000D02*
X127580000Y-76168000D01*
X124580000Y-76168000D02*
X127580000Y-76168000D01*
X127580000Y-76168000D02*
X127580000Y-81168000D01*
X127580000Y-81168000D02*
X124580000Y-81168000D01*
X124580000Y-81168000D02*
X124580000Y-76168000D01*
X121412000Y-99822000D02*
X131572000Y-99822000D01*
X121412000Y-92202000D02*
X121412000Y-99822000D01*
X131572000Y-92202000D02*
X121412000Y-92202000D01*
X131572000Y-99822000D02*
X131572000Y-92202000D01*
X131572000Y-98552000D02*
X121412000Y-98552000D01*
X100584000Y-99822000D02*
X110744000Y-99822000D01*
X100584000Y-92202000D02*
X100584000Y-99822000D01*
X110744000Y-92202000D02*
X100584000Y-92202000D01*
X110744000Y-99822000D02*
X110744000Y-92202000D01*
X110744000Y-98552000D02*
X100584000Y-98552000D01*
X109274000Y-77124000D02*
X112214000Y-77124000D01*
X109274000Y-76884000D02*
X112214000Y-76884000D01*
X109274000Y-77004000D02*
X112214000Y-77004000D01*
X110744000Y-71244000D02*
X110744000Y-72464000D01*
X110744000Y-79124000D02*
X110744000Y-77904000D01*
X109274000Y-72464000D02*
X109274000Y-77904000D01*
X112214000Y-72464000D02*
X109274000Y-72464000D01*
X112214000Y-77904000D02*
X112214000Y-72464000D01*
X109274000Y-77904000D02*
X112214000Y-77904000D01*
X110824000Y-87142000D02*
G75*
G03*
X110824000Y-87142000I-2620000J0D01*
G01*
X105624000Y-87142000D02*
X110784000Y-87142000D01*
X105624000Y-87102000D02*
X110784000Y-87102000D01*
X105625000Y-87062000D02*
X110783000Y-87062000D01*
X105626000Y-87022000D02*
X110782000Y-87022000D01*
X105628000Y-86982000D02*
X110780000Y-86982000D01*
X105631000Y-86942000D02*
X110777000Y-86942000D01*
X105635000Y-86902000D02*
X107164000Y-86902000D01*
X109244000Y-86902000D02*
X110773000Y-86902000D01*
X105639000Y-86862000D02*
X107164000Y-86862000D01*
X109244000Y-86862000D02*
X110769000Y-86862000D01*
X105643000Y-86822000D02*
X107164000Y-86822000D01*
X109244000Y-86822000D02*
X110765000Y-86822000D01*
X105648000Y-86782000D02*
X107164000Y-86782000D01*
X109244000Y-86782000D02*
X110760000Y-86782000D01*
X105654000Y-86742000D02*
X107164000Y-86742000D01*
X109244000Y-86742000D02*
X110754000Y-86742000D01*
X105661000Y-86702000D02*
X107164000Y-86702000D01*
X109244000Y-86702000D02*
X110747000Y-86702000D01*
X105668000Y-86662000D02*
X107164000Y-86662000D01*
X109244000Y-86662000D02*
X110740000Y-86662000D01*
X105676000Y-86622000D02*
X107164000Y-86622000D01*
X109244000Y-86622000D02*
X110732000Y-86622000D01*
X105684000Y-86582000D02*
X107164000Y-86582000D01*
X109244000Y-86582000D02*
X110724000Y-86582000D01*
X105693000Y-86542000D02*
X107164000Y-86542000D01*
X109244000Y-86542000D02*
X110715000Y-86542000D01*
X105703000Y-86502000D02*
X107164000Y-86502000D01*
X109244000Y-86502000D02*
X110705000Y-86502000D01*
X105713000Y-86462000D02*
X107164000Y-86462000D01*
X109244000Y-86462000D02*
X110695000Y-86462000D01*
X105724000Y-86421000D02*
X107164000Y-86421000D01*
X109244000Y-86421000D02*
X110684000Y-86421000D01*
X105736000Y-86381000D02*
X107164000Y-86381000D01*
X109244000Y-86381000D02*
X110672000Y-86381000D01*
X105749000Y-86341000D02*
X107164000Y-86341000D01*
X109244000Y-86341000D02*
X110659000Y-86341000D01*
X105762000Y-86301000D02*
X107164000Y-86301000D01*
X109244000Y-86301000D02*
X110646000Y-86301000D01*
X105776000Y-86261000D02*
X107164000Y-86261000D01*
X109244000Y-86261000D02*
X110632000Y-86261000D01*
X105790000Y-86221000D02*
X107164000Y-86221000D01*
X109244000Y-86221000D02*
X110618000Y-86221000D01*
X105806000Y-86181000D02*
X107164000Y-86181000D01*
X109244000Y-86181000D02*
X110602000Y-86181000D01*
X105822000Y-86141000D02*
X107164000Y-86141000D01*
X109244000Y-86141000D02*
X110586000Y-86141000D01*
X105839000Y-86101000D02*
X107164000Y-86101000D01*
X109244000Y-86101000D02*
X110569000Y-86101000D01*
X105856000Y-86061000D02*
X107164000Y-86061000D01*
X109244000Y-86061000D02*
X110552000Y-86061000D01*
X105875000Y-86021000D02*
X107164000Y-86021000D01*
X109244000Y-86021000D02*
X110533000Y-86021000D01*
X105894000Y-85981000D02*
X107164000Y-85981000D01*
X109244000Y-85981000D02*
X110514000Y-85981000D01*
X105914000Y-85941000D02*
X107164000Y-85941000D01*
X109244000Y-85941000D02*
X110494000Y-85941000D01*
X105936000Y-85901000D02*
X107164000Y-85901000D01*
X109244000Y-85901000D02*
X110472000Y-85901000D01*
X105957000Y-85861000D02*
X107164000Y-85861000D01*
X109244000Y-85861000D02*
X110451000Y-85861000D01*
X105980000Y-85821000D02*
X107164000Y-85821000D01*
X109244000Y-85821000D02*
X110428000Y-85821000D01*
X106004000Y-85781000D02*
X107164000Y-85781000D01*
X109244000Y-85781000D02*
X110404000Y-85781000D01*
X106029000Y-85741000D02*
X107164000Y-85741000D01*
X109244000Y-85741000D02*
X110379000Y-85741000D01*
X106055000Y-85701000D02*
X107164000Y-85701000D01*
X109244000Y-85701000D02*
X110353000Y-85701000D01*
X106082000Y-85661000D02*
X107164000Y-85661000D01*
X109244000Y-85661000D02*
X110326000Y-85661000D01*
X106109000Y-85621000D02*
X107164000Y-85621000D01*
X109244000Y-85621000D02*
X110299000Y-85621000D01*
X106139000Y-85581000D02*
X107164000Y-85581000D01*
X109244000Y-85581000D02*
X110269000Y-85581000D01*
X106169000Y-85541000D02*
X107164000Y-85541000D01*
X109244000Y-85541000D02*
X110239000Y-85541000D01*
X106200000Y-85501000D02*
X107164000Y-85501000D01*
X109244000Y-85501000D02*
X110208000Y-85501000D01*
X106233000Y-85461000D02*
X107164000Y-85461000D01*
X109244000Y-85461000D02*
X110175000Y-85461000D01*
X106267000Y-85421000D02*
X107164000Y-85421000D01*
X109244000Y-85421000D02*
X110141000Y-85421000D01*
X106303000Y-85381000D02*
X107164000Y-85381000D01*
X109244000Y-85381000D02*
X110105000Y-85381000D01*
X106340000Y-85341000D02*
X107164000Y-85341000D01*
X109244000Y-85341000D02*
X110068000Y-85341000D01*
X106378000Y-85301000D02*
X107164000Y-85301000D01*
X109244000Y-85301000D02*
X110030000Y-85301000D01*
X106419000Y-85261000D02*
X107164000Y-85261000D01*
X109244000Y-85261000D02*
X109989000Y-85261000D01*
X106461000Y-85221000D02*
X107164000Y-85221000D01*
X109244000Y-85221000D02*
X109947000Y-85221000D01*
X106505000Y-85181000D02*
X107164000Y-85181000D01*
X109244000Y-85181000D02*
X109903000Y-85181000D01*
X106551000Y-85141000D02*
X107164000Y-85141000D01*
X109244000Y-85141000D02*
X109857000Y-85141000D01*
X106599000Y-85101000D02*
X107164000Y-85101000D01*
X109244000Y-85101000D02*
X109809000Y-85101000D01*
X106650000Y-85061000D02*
X107164000Y-85061000D01*
X109244000Y-85061000D02*
X109758000Y-85061000D01*
X106704000Y-85021000D02*
X107164000Y-85021000D01*
X109244000Y-85021000D02*
X109704000Y-85021000D01*
X106761000Y-84981000D02*
X107164000Y-84981000D01*
X109244000Y-84981000D02*
X109647000Y-84981000D01*
X106821000Y-84941000D02*
X107164000Y-84941000D01*
X109244000Y-84941000D02*
X109587000Y-84941000D01*
X106885000Y-84901000D02*
X107164000Y-84901000D01*
X109244000Y-84901000D02*
X109523000Y-84901000D01*
X106953000Y-84861000D02*
X107164000Y-84861000D01*
X109244000Y-84861000D02*
X109455000Y-84861000D01*
X107026000Y-84821000D02*
X109382000Y-84821000D01*
X107106000Y-84781000D02*
X109302000Y-84781000D01*
X107193000Y-84741000D02*
X109215000Y-84741000D01*
X107289000Y-84701000D02*
X109119000Y-84701000D01*
X107399000Y-84661000D02*
X109009000Y-84661000D01*
X107527000Y-84621000D02*
X108881000Y-84621000D01*
X107686000Y-84581000D02*
X108722000Y-84581000D01*
X107920000Y-84541000D02*
X108488000Y-84541000D01*
X106729000Y-89946775D02*
X106729000Y-89446775D01*
X106479000Y-89696775D02*
X106979000Y-89696775D01*
X98351000Y-89696775D02*
X98851000Y-89696775D01*
X98601000Y-89946775D02*
X98601000Y-89446775D01*
X99792000Y-84541000D02*
X100360000Y-84541000D01*
X99558000Y-84581000D02*
X100594000Y-84581000D01*
X99399000Y-84621000D02*
X100753000Y-84621000D01*
X99271000Y-84661000D02*
X100881000Y-84661000D01*
X99161000Y-84701000D02*
X100991000Y-84701000D01*
X99065000Y-84741000D02*
X101087000Y-84741000D01*
X98978000Y-84781000D02*
X101174000Y-84781000D01*
X98898000Y-84821000D02*
X101254000Y-84821000D01*
X101116000Y-84861000D02*
X101327000Y-84861000D01*
X98825000Y-84861000D02*
X99036000Y-84861000D01*
X101116000Y-84901000D02*
X101395000Y-84901000D01*
X98757000Y-84901000D02*
X99036000Y-84901000D01*
X101116000Y-84941000D02*
X101459000Y-84941000D01*
X98693000Y-84941000D02*
X99036000Y-84941000D01*
X101116000Y-84981000D02*
X101519000Y-84981000D01*
X98633000Y-84981000D02*
X99036000Y-84981000D01*
X101116000Y-85021000D02*
X101576000Y-85021000D01*
X98576000Y-85021000D02*
X99036000Y-85021000D01*
X101116000Y-85061000D02*
X101630000Y-85061000D01*
X98522000Y-85061000D02*
X99036000Y-85061000D01*
X101116000Y-85101000D02*
X101681000Y-85101000D01*
X98471000Y-85101000D02*
X99036000Y-85101000D01*
X101116000Y-85141000D02*
X101729000Y-85141000D01*
X98423000Y-85141000D02*
X99036000Y-85141000D01*
X101116000Y-85181000D02*
X101775000Y-85181000D01*
X98377000Y-85181000D02*
X99036000Y-85181000D01*
X101116000Y-85221000D02*
X101819000Y-85221000D01*
X98333000Y-85221000D02*
X99036000Y-85221000D01*
X101116000Y-85261000D02*
X101861000Y-85261000D01*
X98291000Y-85261000D02*
X99036000Y-85261000D01*
X101116000Y-85301000D02*
X101902000Y-85301000D01*
X98250000Y-85301000D02*
X99036000Y-85301000D01*
X101116000Y-85341000D02*
X101940000Y-85341000D01*
X98212000Y-85341000D02*
X99036000Y-85341000D01*
X101116000Y-85381000D02*
X101977000Y-85381000D01*
X98175000Y-85381000D02*
X99036000Y-85381000D01*
X101116000Y-85421000D02*
X102013000Y-85421000D01*
X98139000Y-85421000D02*
X99036000Y-85421000D01*
X101116000Y-85461000D02*
X102047000Y-85461000D01*
X98105000Y-85461000D02*
X99036000Y-85461000D01*
X101116000Y-85501000D02*
X102080000Y-85501000D01*
X98072000Y-85501000D02*
X99036000Y-85501000D01*
X101116000Y-85541000D02*
X102111000Y-85541000D01*
X98041000Y-85541000D02*
X99036000Y-85541000D01*
X101116000Y-85581000D02*
X102141000Y-85581000D01*
X98011000Y-85581000D02*
X99036000Y-85581000D01*
X101116000Y-85621000D02*
X102171000Y-85621000D01*
X97981000Y-85621000D02*
X99036000Y-85621000D01*
X101116000Y-85661000D02*
X102198000Y-85661000D01*
X97954000Y-85661000D02*
X99036000Y-85661000D01*
X101116000Y-85701000D02*
X102225000Y-85701000D01*
X97927000Y-85701000D02*
X99036000Y-85701000D01*
X101116000Y-85741000D02*
X102251000Y-85741000D01*
X97901000Y-85741000D02*
X99036000Y-85741000D01*
X101116000Y-85781000D02*
X102276000Y-85781000D01*
X97876000Y-85781000D02*
X99036000Y-85781000D01*
X101116000Y-85821000D02*
X102300000Y-85821000D01*
X97852000Y-85821000D02*
X99036000Y-85821000D01*
X101116000Y-85861000D02*
X102323000Y-85861000D01*
X97829000Y-85861000D02*
X99036000Y-85861000D01*
X101116000Y-85901000D02*
X102344000Y-85901000D01*
X97808000Y-85901000D02*
X99036000Y-85901000D01*
X101116000Y-85941000D02*
X102366000Y-85941000D01*
X97786000Y-85941000D02*
X99036000Y-85941000D01*
X101116000Y-85981000D02*
X102386000Y-85981000D01*
X97766000Y-85981000D02*
X99036000Y-85981000D01*
X101116000Y-86021000D02*
X102405000Y-86021000D01*
X97747000Y-86021000D02*
X99036000Y-86021000D01*
X101116000Y-86061000D02*
X102424000Y-86061000D01*
X97728000Y-86061000D02*
X99036000Y-86061000D01*
X101116000Y-86101000D02*
X102441000Y-86101000D01*
X97711000Y-86101000D02*
X99036000Y-86101000D01*
X101116000Y-86141000D02*
X102458000Y-86141000D01*
X97694000Y-86141000D02*
X99036000Y-86141000D01*
X101116000Y-86181000D02*
X102474000Y-86181000D01*
X97678000Y-86181000D02*
X99036000Y-86181000D01*
X101116000Y-86221000D02*
X102490000Y-86221000D01*
X97662000Y-86221000D02*
X99036000Y-86221000D01*
X101116000Y-86261000D02*
X102504000Y-86261000D01*
X97648000Y-86261000D02*
X99036000Y-86261000D01*
X101116000Y-86301000D02*
X102518000Y-86301000D01*
X97634000Y-86301000D02*
X99036000Y-86301000D01*
X101116000Y-86341000D02*
X102531000Y-86341000D01*
X97621000Y-86341000D02*
X99036000Y-86341000D01*
X101116000Y-86381000D02*
X102544000Y-86381000D01*
X97608000Y-86381000D02*
X99036000Y-86381000D01*
X101116000Y-86421000D02*
X102556000Y-86421000D01*
X97596000Y-86421000D02*
X99036000Y-86421000D01*
X101116000Y-86462000D02*
X102567000Y-86462000D01*
X97585000Y-86462000D02*
X99036000Y-86462000D01*
X101116000Y-86502000D02*
X102577000Y-86502000D01*
X97575000Y-86502000D02*
X99036000Y-86502000D01*
X101116000Y-86542000D02*
X102587000Y-86542000D01*
X97565000Y-86542000D02*
X99036000Y-86542000D01*
X101116000Y-86582000D02*
X102596000Y-86582000D01*
X97556000Y-86582000D02*
X99036000Y-86582000D01*
X101116000Y-86622000D02*
X102604000Y-86622000D01*
X97548000Y-86622000D02*
X99036000Y-86622000D01*
X101116000Y-86662000D02*
X102612000Y-86662000D01*
X97540000Y-86662000D02*
X99036000Y-86662000D01*
X101116000Y-86702000D02*
X102619000Y-86702000D01*
X97533000Y-86702000D02*
X99036000Y-86702000D01*
X101116000Y-86742000D02*
X102626000Y-86742000D01*
X97526000Y-86742000D02*
X99036000Y-86742000D01*
X101116000Y-86782000D02*
X102632000Y-86782000D01*
X97520000Y-86782000D02*
X99036000Y-86782000D01*
X101116000Y-86822000D02*
X102637000Y-86822000D01*
X97515000Y-86822000D02*
X99036000Y-86822000D01*
X101116000Y-86862000D02*
X102641000Y-86862000D01*
X97511000Y-86862000D02*
X99036000Y-86862000D01*
X101116000Y-86902000D02*
X102645000Y-86902000D01*
X97507000Y-86902000D02*
X99036000Y-86902000D01*
X97503000Y-86942000D02*
X102649000Y-86942000D01*
X97500000Y-86982000D02*
X102652000Y-86982000D01*
X97498000Y-87022000D02*
X102654000Y-87022000D01*
X97497000Y-87062000D02*
X102655000Y-87062000D01*
X97496000Y-87102000D02*
X102656000Y-87102000D01*
X97496000Y-87142000D02*
X102656000Y-87142000D01*
X102696000Y-87142000D02*
G75*
G03*
X102696000Y-87142000I-2620000J0D01*
G01*
D14*
X104417904Y-75636380D02*
X104417904Y-74636380D01*
X104656000Y-74636380D01*
X104798857Y-74684000D01*
X104894095Y-74779238D01*
X104941714Y-74874476D01*
X104989333Y-75064952D01*
X104989333Y-75207809D01*
X104941714Y-75398285D01*
X104894095Y-75493523D01*
X104798857Y-75588761D01*
X104656000Y-75636380D01*
X104417904Y-75636380D01*
X105941714Y-75636380D02*
X105370285Y-75636380D01*
X105656000Y-75636380D02*
X105656000Y-74636380D01*
X105560761Y-74779238D01*
X105465523Y-74874476D01*
X105370285Y-74922095D01*
X93813333Y-91289142D02*
X93765714Y-91336761D01*
X93622857Y-91384380D01*
X93527619Y-91384380D01*
X93384761Y-91336761D01*
X93289523Y-91241523D01*
X93241904Y-91146285D01*
X93194285Y-90955809D01*
X93194285Y-90812952D01*
X93241904Y-90622476D01*
X93289523Y-90527238D01*
X93384761Y-90432000D01*
X93527619Y-90384380D01*
X93622857Y-90384380D01*
X93765714Y-90432000D01*
X93813333Y-90479619D01*
X94194285Y-90479619D02*
X94241904Y-90432000D01*
X94337142Y-90384380D01*
X94575238Y-90384380D01*
X94670476Y-90432000D01*
X94718095Y-90479619D01*
X94765714Y-90574857D01*
X94765714Y-90670095D01*
X94718095Y-90812952D01*
X94146666Y-91384380D01*
X94765714Y-91384380D01*
X90090666Y-80224380D02*
X90090666Y-80938666D01*
X90043047Y-81081523D01*
X89947809Y-81176761D01*
X89804952Y-81224380D01*
X89709714Y-81224380D01*
X91090666Y-81224380D02*
X90519238Y-81224380D01*
X90804952Y-81224380D02*
X90804952Y-80224380D01*
X90709714Y-80367238D01*
X90614476Y-80462476D01*
X90519238Y-80510095D01*
X83566095Y-96988380D02*
X83566095Y-97797904D01*
X83613714Y-97893142D01*
X83661333Y-97940761D01*
X83756571Y-97988380D01*
X83947047Y-97988380D01*
X84042285Y-97940761D01*
X84089904Y-97893142D01*
X84137523Y-97797904D01*
X84137523Y-96988380D01*
X85137523Y-97988380D02*
X84566095Y-97988380D01*
X84851809Y-97988380D02*
X84851809Y-96988380D01*
X84756571Y-97131238D01*
X84661333Y-97226476D01*
X84566095Y-97274095D01*
X83653333Y-88844380D02*
X83320000Y-88368190D01*
X83081904Y-88844380D02*
X83081904Y-87844380D01*
X83462857Y-87844380D01*
X83558095Y-87892000D01*
X83605714Y-87939619D01*
X83653333Y-88034857D01*
X83653333Y-88177714D01*
X83605714Y-88272952D01*
X83558095Y-88320571D01*
X83462857Y-88368190D01*
X83081904Y-88368190D01*
X84558095Y-87844380D02*
X84081904Y-87844380D01*
X84034285Y-88320571D01*
X84081904Y-88272952D01*
X84177142Y-88225333D01*
X84415238Y-88225333D01*
X84510476Y-88272952D01*
X84558095Y-88320571D01*
X84605714Y-88415809D01*
X84605714Y-88653904D01*
X84558095Y-88749142D01*
X84510476Y-88796761D01*
X84415238Y-88844380D01*
X84177142Y-88844380D01*
X84081904Y-88796761D01*
X84034285Y-88749142D01*
X96353333Y-75636380D02*
X96020000Y-75160190D01*
X95781904Y-75636380D02*
X95781904Y-74636380D01*
X96162857Y-74636380D01*
X96258095Y-74684000D01*
X96305714Y-74731619D01*
X96353333Y-74826857D01*
X96353333Y-74969714D01*
X96305714Y-75064952D01*
X96258095Y-75112571D01*
X96162857Y-75160190D01*
X95781904Y-75160190D01*
X97210476Y-74969714D02*
X97210476Y-75636380D01*
X96972380Y-74588761D02*
X96734285Y-75303047D01*
X97353333Y-75303047D01*
X101433333Y-75636380D02*
X101100000Y-75160190D01*
X100861904Y-75636380D02*
X100861904Y-74636380D01*
X101242857Y-74636380D01*
X101338095Y-74684000D01*
X101385714Y-74731619D01*
X101433333Y-74826857D01*
X101433333Y-74969714D01*
X101385714Y-75064952D01*
X101338095Y-75112571D01*
X101242857Y-75160190D01*
X100861904Y-75160190D01*
X101766666Y-74636380D02*
X102385714Y-74636380D01*
X102052380Y-75017333D01*
X102195238Y-75017333D01*
X102290476Y-75064952D01*
X102338095Y-75112571D01*
X102385714Y-75207809D01*
X102385714Y-75445904D01*
X102338095Y-75541142D01*
X102290476Y-75588761D01*
X102195238Y-75636380D01*
X101909523Y-75636380D01*
X101814285Y-75588761D01*
X101766666Y-75541142D01*
X83653333Y-73012380D02*
X83320000Y-72536190D01*
X83081904Y-73012380D02*
X83081904Y-72012380D01*
X83462857Y-72012380D01*
X83558095Y-72060000D01*
X83605714Y-72107619D01*
X83653333Y-72202857D01*
X83653333Y-72345714D01*
X83605714Y-72440952D01*
X83558095Y-72488571D01*
X83462857Y-72536190D01*
X83081904Y-72536190D01*
X84034285Y-72107619D02*
X84081904Y-72060000D01*
X84177142Y-72012380D01*
X84415238Y-72012380D01*
X84510476Y-72060000D01*
X84558095Y-72107619D01*
X84605714Y-72202857D01*
X84605714Y-72298095D01*
X84558095Y-72440952D01*
X83986666Y-73012380D01*
X84605714Y-73012380D01*
X83653333Y-68270380D02*
X83320000Y-67794190D01*
X83081904Y-68270380D02*
X83081904Y-67270380D01*
X83462857Y-67270380D01*
X83558095Y-67318000D01*
X83605714Y-67365619D01*
X83653333Y-67460857D01*
X83653333Y-67603714D01*
X83605714Y-67698952D01*
X83558095Y-67746571D01*
X83462857Y-67794190D01*
X83081904Y-67794190D01*
X84605714Y-68270380D02*
X84034285Y-68270380D01*
X84320000Y-68270380D02*
X84320000Y-67270380D01*
X84224761Y-67413238D01*
X84129523Y-67508476D01*
X84034285Y-67556095D01*
X104298761Y-84367619D02*
X104203523Y-84320000D01*
X104108285Y-84224761D01*
X103965428Y-84081904D01*
X103870190Y-84034285D01*
X103774952Y-84034285D01*
X103822571Y-84272380D02*
X103727333Y-84224761D01*
X103632095Y-84129523D01*
X103584476Y-83939047D01*
X103584476Y-83605714D01*
X103632095Y-83415238D01*
X103727333Y-83320000D01*
X103822571Y-83272380D01*
X104013047Y-83272380D01*
X104108285Y-83320000D01*
X104203523Y-83415238D01*
X104251142Y-83605714D01*
X104251142Y-83939047D01*
X104203523Y-84129523D01*
X104108285Y-84224761D01*
X104013047Y-84272380D01*
X103822571Y-84272380D01*
X105203523Y-84272380D02*
X104632095Y-84272380D01*
X104917809Y-84272380D02*
X104917809Y-83272380D01*
X104822571Y-83415238D01*
X104727333Y-83510476D01*
X104632095Y-83558095D01*
X118641904Y-91892380D02*
X118641904Y-90892380D01*
X119213333Y-91892380D02*
X118784761Y-91320952D01*
X119213333Y-90892380D02*
X118641904Y-91463809D01*
X120165714Y-91892380D02*
X119594285Y-91892380D01*
X119880000Y-91892380D02*
X119880000Y-90892380D01*
X119784761Y-91035238D01*
X119689523Y-91130476D01*
X119594285Y-91178095D01*
X132889666Y-95464380D02*
X132889666Y-96178666D01*
X132842047Y-96321523D01*
X132746809Y-96416761D01*
X132603952Y-96464380D01*
X132508714Y-96464380D01*
X133270619Y-95464380D02*
X133889666Y-95464380D01*
X133556333Y-95845333D01*
X133699190Y-95845333D01*
X133794428Y-95892952D01*
X133842047Y-95940571D01*
X133889666Y-96035809D01*
X133889666Y-96273904D01*
X133842047Y-96369142D01*
X133794428Y-96416761D01*
X133699190Y-96464380D01*
X133413476Y-96464380D01*
X133318238Y-96416761D01*
X133270619Y-96369142D01*
X111934666Y-95464380D02*
X111934666Y-96178666D01*
X111887047Y-96321523D01*
X111791809Y-96416761D01*
X111648952Y-96464380D01*
X111553714Y-96464380D01*
X112363238Y-95559619D02*
X112410857Y-95512000D01*
X112506095Y-95464380D01*
X112744190Y-95464380D01*
X112839428Y-95512000D01*
X112887047Y-95559619D01*
X112934666Y-95654857D01*
X112934666Y-95750095D01*
X112887047Y-95892952D01*
X112315619Y-96464380D01*
X112934666Y-96464380D01*
X112545904Y-75636380D02*
X112545904Y-74636380D01*
X112784000Y-74636380D01*
X112926857Y-74684000D01*
X113022095Y-74779238D01*
X113069714Y-74874476D01*
X113117333Y-75064952D01*
X113117333Y-75207809D01*
X113069714Y-75398285D01*
X113022095Y-75493523D01*
X112926857Y-75588761D01*
X112784000Y-75636380D01*
X112545904Y-75636380D01*
X113498285Y-74731619D02*
X113545904Y-74684000D01*
X113641142Y-74636380D01*
X113879238Y-74636380D01*
X113974476Y-74684000D01*
X114022095Y-74731619D01*
X114069714Y-74826857D01*
X114069714Y-74922095D01*
X114022095Y-75064952D01*
X113450666Y-75636380D01*
X114069714Y-75636380D01*
X108037333Y-91289142D02*
X107989714Y-91336761D01*
X107846857Y-91384380D01*
X107751619Y-91384380D01*
X107608761Y-91336761D01*
X107513523Y-91241523D01*
X107465904Y-91146285D01*
X107418285Y-90955809D01*
X107418285Y-90812952D01*
X107465904Y-90622476D01*
X107513523Y-90527238D01*
X107608761Y-90432000D01*
X107751619Y-90384380D01*
X107846857Y-90384380D01*
X107989714Y-90432000D01*
X108037333Y-90479619D01*
X108370666Y-90384380D02*
X108989714Y-90384380D01*
X108656380Y-90765333D01*
X108799238Y-90765333D01*
X108894476Y-90812952D01*
X108942095Y-90860571D01*
X108989714Y-90955809D01*
X108989714Y-91193904D01*
X108942095Y-91289142D01*
X108894476Y-91336761D01*
X108799238Y-91384380D01*
X108513523Y-91384380D01*
X108418285Y-91336761D01*
X108370666Y-91289142D01*
X99909333Y-91162142D02*
X99861714Y-91209761D01*
X99718857Y-91257380D01*
X99623619Y-91257380D01*
X99480761Y-91209761D01*
X99385523Y-91114523D01*
X99337904Y-91019285D01*
X99290285Y-90828809D01*
X99290285Y-90685952D01*
X99337904Y-90495476D01*
X99385523Y-90400238D01*
X99480761Y-90305000D01*
X99623619Y-90257380D01*
X99718857Y-90257380D01*
X99861714Y-90305000D01*
X99909333Y-90352619D01*
X100861714Y-91257380D02*
X100290285Y-91257380D01*
X100576000Y-91257380D02*
X100576000Y-90257380D01*
X100480761Y-90400238D01*
X100385523Y-90495476D01*
X100290285Y-90543095D01*
M02*
